<svg version="1.1" id="Layer_1" xmlns="http://www.w3.org/2000/svg" xmlns:xlink="http://www.w3.org/1999/xlink" x="0px" y="0px"
	 width="100%" viewBox="0 0 820 927" enable-background="new 0 0 820 927" xml:space="preserve">
<path fill="#F6F6F5" opacity="1.000000" stroke="none" 
	d="
M1.000000,260.000000 
	C1.000000,173.333328 1.000000,87.166664 1.000000,1.000000 
	C274.333344,1.000000 547.666687,1.000000 821.000000,1.000000 
	C821.000000,310.000000 821.000000,619.000000 821.000000,928.000000 
	C547.666687,928.000000 274.333344,928.000000 1.000000,928.000000 
	C1.000000,705.500000 1.000000,483.000000 1.000000,260.000000 
M118.327591,376.093842 
	C120.220253,397.808716 122.127701,419.522278 124.001343,441.238800 
	C125.803596,462.127747 127.491455,483.026855 129.373276,503.908569 
	C131.807571,530.920715 134.435883,557.915344 136.884567,584.926208 
	C139.078003,609.121155 141.056076,633.335632 143.283325,657.527405 
	C146.089966,688.012146 149.046494,718.483154 151.950943,748.958923 
	C154.555420,776.287415 157.313797,803.602600 159.653137,830.953674 
	C160.032715,835.391418 161.875275,836.693542 165.708633,837.770081 
	C237.479156,857.926514 309.212128,878.216675 380.951477,898.484009 
	C385.915649,899.886414 390.986816,901.013123 395.803223,902.815735 
	C408.742706,907.658630 420.594849,902.862488 432.764709,899.419983 
	C507.060852,878.403748 581.398376,857.533752 655.746155,836.700684 
	C659.371216,835.684937 660.744446,833.897766 661.006592,830.102905 
	C662.245300,812.173767 663.736023,794.261108 665.258484,776.352844 
	C667.471375,750.323120 669.802063,724.303467 672.057190,698.277283 
	C673.809692,678.051270 675.475281,657.817505 677.265503,637.594849 
	C680.155945,604.943359 683.129211,572.299255 686.043945,539.649841 
	C687.819519,519.760925 689.524353,499.865601 691.309692,479.977570 
	C693.198914,458.931946 695.157898,437.892548 697.063843,416.848419 
	C698.519775,400.773041 699.910706,384.691742 701.383545,368.617920 
	C703.888733,341.277008 706.445679,313.940796 708.961365,286.600830 
	C710.577332,269.037994 712.184998,251.474319 713.741577,233.906174 
	C714.350708,227.032104 714.809814,220.144745 715.358521,212.986450 
	C710.791870,212.714996 707.155090,212.321640 703.516846,212.308273 
	C593.212708,211.903122 482.908691,211.387741 372.604126,211.222885 
	C315.807800,211.138016 259.010620,211.705551 202.213684,211.942963 
	C174.553360,212.058578 146.892502,212.052979 119.232422,212.204086 
	C114.633652,212.229202 110.037735,212.777603 105.161095,213.102814 
	C105.161095,215.548599 105.026909,217.520157 105.182190,219.468658 
	C106.504150,236.056320 107.848923,252.642319 109.243698,269.224030 
	C112.214622,304.543701 115.219681,339.860474 118.327591,376.093842 
M449.060699,60.551506 
	C449.060699,57.431946 449.060699,54.312382 449.060699,50.742611 
	C440.094116,48.859158 431.538544,46.642101 422.846558,45.326149 
	C406.192291,42.804714 390.642700,44.906258 376.355011,55.282902 
	C363.756897,64.432465 360.243134,95.386597 377.771912,104.215782 
	C385.152130,107.933159 392.838226,111.168404 400.642120,113.884949 
	C408.765442,116.712700 417.198669,118.650269 425.397369,120.949310 
	C424.102661,132.242050 417.558044,139.199127 407.035431,138.639130 
	C398.878967,138.205063 390.706268,135.923294 382.801178,133.583145 
	C376.174774,131.621552 369.924835,128.388306 362.770874,125.411293 
	C363.528625,131.122910 364.218628,136.175003 364.865814,141.232590 
	C366.392548,153.164383 366.373810,153.216537 377.986389,155.608353 
	C391.891693,158.472382 405.900238,161.022385 420.061829,157.945648 
	C434.998779,154.700500 447.203949,147.794846 451.528687,131.646240 
	C455.944153,115.158852 449.715302,101.711563 434.084076,95.102959 
	C427.366364,92.262833 420.328796,90.138748 413.349457,87.969597 
	C406.587372,85.867966 399.713501,84.125961 392.993378,82.255135 
	C394.355865,70.955521 400.675812,65.135818 411.205078,64.951012 
	C421.971832,64.762032 431.716156,68.724152 441.511932,72.462997 
	C443.872711,73.364052 446.221222,74.297249 449.057526,75.403770 
	C449.057526,70.177345 449.057526,65.853035 449.060699,60.551506 
M704.812500,158.237106 
	C722.757324,156.809082 731.648315,150.073441 736.889893,133.940750 
	C740.080688,124.119858 741.513611,113.918900 739.618103,103.873955 
	C738.265198,96.704475 735.698975,89.285042 731.780518,83.195702 
	C726.477844,74.955383 718.399048,70.600410 707.778320,73.156715 
	C702.957336,74.317078 697.894165,74.954559 692.937744,74.972420 
	C681.384766,75.014046 669.829956,74.536377 658.112061,74.265297 
	C658.112061,111.380951 658.112061,149.286285 658.112061,187.551453 
	C666.923401,187.551453 675.453674,187.551453 684.236084,187.551453 
	C684.236084,177.565872 684.236084,167.958313 684.236084,158.310089 
	C690.981934,158.310089 697.446350,158.310089 704.812500,158.237106 
M281.662384,112.118179 
	C270.657135,119.373192 270.035339,130.188873 272.362610,141.434479 
	C274.574463,152.122284 282.678558,156.796555 292.771362,158.502930 
	C300.864410,159.871216 308.622589,158.452499 316.239166,155.545181 
	C318.267456,154.770935 320.707764,154.527817 322.877716,154.769516 
	C331.437103,155.722916 339.964172,156.966263 349.817017,158.276779 
	C349.275238,136.869507 348.597321,115.982307 348.281006,95.089630 
	C348.123230,84.668053 341.825653,79.268974 333.436829,75.293129 
	C331.348755,74.303482 329.100220,73.584740 326.858215,72.998482 
	C312.619965,69.275230 298.428894,71.482307 284.258850,73.546379 
	C283.303314,73.685555 281.988068,74.557915 281.676575,75.399048 
	C279.577942,81.066040 277.705292,86.816727 275.520142,93.244278 
	C279.103088,92.916969 281.724762,92.618050 284.354767,92.448280 
	C292.473511,91.924187 300.605835,90.944328 308.712830,91.111725 
	C315.461273,91.251076 321.250854,94.327751 325.668396,100.621880 
	C322.293396,101.180176 319.699799,101.602875 317.108459,102.038979 
	C305.159149,104.049896 292.988647,105.270226 281.662384,112.118179 
M126.140221,157.625046 
	C140.459991,151.784393 155.042191,156.940643 170.184937,156.888596 
	C170.184937,144.811127 170.401871,133.018143 170.115799,121.237358 
	C169.889816,111.931213 168.991150,102.642990 168.493149,93.341354 
	C168.104874,86.088799 163.963684,81.080093 158.146393,77.832687 
	C153.448196,75.209976 148.053452,72.517944 142.875504,72.324532 
	C128.663864,71.793686 114.403694,72.562302 99.799362,72.823090 
	C99.363091,80.356491 99.002846,86.577187 98.639473,92.851791 
	C107.499573,92.175903 115.765198,91.240524 124.051086,90.998169 
	C132.503754,90.750954 140.208389,93.056702 146.813675,99.953911 
	C144.538239,100.468132 143.092163,100.789299 141.648758,101.121986 
	C129.992844,103.808517 118.246147,106.162415 106.715111,109.307045 
	C99.450470,111.288200 95.163994,116.951973 93.049026,124.072830 
	C87.286285,143.475357 101.465591,165.282074 126.140221,157.625046 
M25.714323,65.911758 
	C33.313522,65.911758 40.912724,65.911758 48.660950,65.911758 
	C48.988579,69.367035 49.306503,72.320312 49.542938,75.280106 
	C50.815926,91.215790 52.219181,107.140747 49.145195,123.056877 
	C46.937138,134.489502 45.575108,136.025879 33.738556,137.093399 
	C26.325459,137.761993 18.861237,137.863724 11.021106,138.238892 
	C11.821719,145.204010 12.590204,151.889618 13.489782,159.715698 
	C26.031744,158.921127 38.381828,158.988541 50.443142,157.155670 
	C64.944603,154.951996 73.963020,146.479233 76.606476,131.123047 
	C81.462349,102.914589 77.191841,74.690880 78.259117,46.158344 
	C60.455875,46.158344 43.081402,46.158344 24.989651,46.158344 
	C24.989651,52.696884 24.989651,58.982944 25.714323,65.911758 
M252.528366,73.094215 
	C250.364044,73.125191 248.160675,73.430382 246.043716,73.128822 
	C241.910767,72.540108 240.192627,74.324562 239.213196,78.226524 
	C237.393921,85.474350 235.112854,92.609741 232.911102,99.757156 
	C230.436493,107.790291 227.837006,115.784966 224.906113,125.010506 
	C223.553864,121.609207 222.677078,119.520683 221.887878,117.399582 
	C217.251907,104.939476 212.675842,92.456787 207.959808,80.027153 
	C207.421143,78.607437 206.334015,76.607124 205.167389,76.341385 
	C197.139679,74.512718 189.023132,73.074005 180.270721,71.381340 
	C188.435394,99.327347 196.459137,126.388474 208.283813,152.138458 
	C208.776627,153.211639 209.931717,154.459793 210.996674,154.714996 
	C219.169556,156.673416 227.396591,158.405991 236.274658,160.355347 
	C246.870224,130.934692 257.195190,102.265343 267.709015,73.071655 
	C262.145966,73.071655 257.828339,73.071655 252.528366,73.094215 
M767.570251,154.868866 
	C776.236267,156.281204 784.868469,158.540039 793.576965,158.887100 
	C803.974304,159.301483 809.776001,152.022354 809.065613,141.116516 
	C802.861572,140.450653 796.609253,139.429001 790.331543,139.236984 
	C786.550598,139.121338 785.109131,137.358231 784.013733,134.265488 
	C779.050110,120.251740 781.919006,106.003227 782.141907,91.534393 
	C790.680237,91.534393 798.761902,91.534393 806.556152,91.534393 
	C806.556152,85.242348 806.556152,79.309601 806.556152,72.903412 
	C798.172058,72.903412 790.243530,72.903412 781.934692,72.903412 
	C781.557983,64.993065 781.203735,57.552162 780.844360,50.005257 
	C772.835999,50.005257 764.962524,50.005257 756.087646,50.005257 
	C759.719299,63.658035 754.815857,73.639786 742.854797,80.288124 
	C747.009216,86.202011 750.773071,91.274338 754.185059,96.573250 
	C755.363464,98.403297 756.172852,100.770348 756.286865,102.937531 
	C756.995422,116.410217 757.423462,129.897354 758.015442,143.376587 
	C758.402100,152.182114 758.455750,152.179764 767.570251,154.868866 
M465.034729,139.397537 
	C478.858093,158.141220 507.429749,165.745285 528.343079,156.179779 
	C529.425049,155.684906 530.825806,154.709045 531.056152,153.719315 
	C532.701416,146.648392 534.081116,139.515656 535.687744,131.710327 
	C527.116150,134.401230 519.374390,136.828598 511.634552,139.262192 
	C501.847107,142.339615 493.082916,138.740555 488.848572,129.395111 
	C483.879364,118.427643 485.140228,107.707649 490.984009,97.335579 
	C493.331207,93.169586 496.892487,90.524399 501.482697,90.982887 
	C508.174988,91.651344 514.845459,92.988411 521.381287,94.617821 
	C525.875977,95.738380 530.126709,97.837914 535.098816,99.733337 
	C534.311035,93.268890 533.920166,87.775276 532.849731,82.417419 
	C532.429504,80.313957 530.934326,77.790329 529.163818,76.699722 
	C520.792542,71.543129 511.432587,69.981201 501.776245,71.016258 
	C461.457306,75.338005 449.850769,112.252090 465.034729,139.397537 
M572.152344,142.622894 
	C572.152344,128.186752 572.152344,113.750618 572.152344,98.969879 
	C583.058105,98.383286 592.616577,97.869156 602.526611,97.336121 
	C601.991150,88.403633 601.486023,79.975990 600.955688,71.128029 
	C594.140869,73.536880 587.803772,75.992905 581.317505,77.956039 
	C578.948486,78.673065 576.093994,78.771172 573.686462,78.200554 
	C564.712830,76.073723 555.832825,73.552040 546.386353,71.037079 
	C546.386353,100.334045 546.386353,128.883087 546.386353,157.480255 
	C555.096924,157.480255 563.463257,157.480255 572.144775,157.480255 
	C572.144775,152.561935 572.144775,148.077240 572.152344,142.622894 
M612.750793,130.220337 
	C612.750793,139.313965 612.750793,148.407593 612.750793,157.662903 
	C621.308716,157.662903 629.056091,157.662903 637.195068,157.662903 
	C637.195068,129.408737 637.195068,101.366257 637.195068,73.270386 
	C628.952087,73.270386 621.192810,73.270386 612.746704,73.270386 
	C612.746704,92.087708 612.746704,110.678421 612.750793,130.220337 
M626.489685,41.063538 
	C621.362061,41.063538 616.234375,41.063538 610.716064,41.063538 
	C610.716064,48.352386 610.716064,55.069878 610.716064,61.924950 
	C620.491028,61.924950 630.066406,61.924950 639.413208,61.924950 
	C639.413208,54.854385 639.413208,48.084873 639.413208,41.060947 
	C635.106812,41.060947 631.294495,41.060947 626.489685,41.063538 
z"/>
<path fill="#D5B932" opacity="1.000000" stroke="none" 
	d="
M118.269173,375.636139 
	C115.219681,339.860474 112.214622,304.543701 109.243698,269.224030 
	C107.848923,252.642319 106.504150,236.056320 105.182190,219.468658 
	C105.026909,217.520157 105.161095,215.548599 105.161095,213.102814 
	C110.037735,212.777603 114.633652,212.229202 119.232422,212.204086 
	C146.892502,212.052979 174.553360,212.058578 202.213684,211.942963 
	C259.010620,211.705551 315.807800,211.138016 372.604126,211.222885 
	C482.908691,211.387741 593.212708,211.903122 703.516846,212.308273 
	C707.155090,212.321640 710.791870,212.714996 715.358521,212.986450 
	C714.809814,220.144745 714.350708,227.032104 713.741577,233.906174 
	C712.184998,251.474319 710.577332,269.037994 708.961365,286.600830 
	C706.445679,313.940796 703.888733,341.277008 701.383545,368.617920 
	C699.910706,384.691742 698.519775,400.773041 697.063843,416.848419 
	C695.157898,437.892548 693.198914,458.931946 691.309692,479.977570 
	C689.524353,499.865601 687.819519,519.760925 686.043945,539.649841 
	C683.129211,572.299255 680.155945,604.943359 677.265503,637.594849 
	C675.475281,657.817505 673.809692,678.051270 672.057190,698.277283 
	C669.802063,724.303467 667.471375,750.323120 665.258484,776.352844 
	C663.736023,794.261108 662.245300,812.173767 661.006592,830.102905 
	C660.744446,833.897766 659.371216,835.684937 655.746155,836.700684 
	C581.398376,857.533752 507.060852,878.403748 432.764709,899.419983 
	C420.594849,902.862488 408.742706,907.658630 395.803223,902.815735 
	C390.986816,901.013123 385.915649,899.886414 380.951477,898.484009 
	C309.212128,878.216675 237.479156,857.926514 165.708633,837.770081 
	C161.875275,836.693542 160.032715,835.391418 159.653137,830.953674 
	C157.313797,803.602600 154.555420,776.287415 151.950943,748.958923 
	C149.046494,718.483154 146.089966,688.012146 143.283325,657.527405 
	C141.056076,633.335632 139.078003,609.121155 136.884567,584.926208 
	C134.435883,557.915344 131.807571,530.920715 129.373276,503.908569 
	C127.491455,483.026855 125.803596,462.127747 124.001343,441.238800 
	C122.127701,419.522278 120.220253,397.808716 118.269173,375.636139 
M645.081238,429.836304 
	C646.383911,416.658173 647.817566,403.491364 648.953308,390.298859 
	C650.147278,376.429626 651.006226,362.531921 652.102600,348.653839 
	C653.354858,332.802734 654.680664,316.957275 656.026367,301.113770 
	C656.867065,291.216644 657.668274,281.312531 658.772766,271.443512 
	C659.138855,268.172058 658.461731,266.961884 654.994080,266.925354 
	C637.031677,266.735931 619.070618,266.052124 601.110474,266.097473 
	C569.651306,266.176880 538.193848,266.778259 506.734528,266.942902 
	C476.574371,267.100769 446.412720,267.002472 416.251831,266.952759 
	C413.154572,266.947632 410.945618,266.912781 410.922333,271.246613 
	C410.833862,287.708832 410.076294,304.168732 410.063049,320.629883 
	C409.974182,430.942352 409.896637,541.255127 410.052979,651.567383 
	C410.146667,717.686096 410.668274,783.804199 411.012970,849.922546 
	C411.021149,851.491272 411.212524,853.059082 411.355865,855.181396 
	C420.696533,852.844421 429.385315,850.809265 437.998169,848.492004 
	C478.545105,837.582642 519.094177,826.679688 559.593384,815.595093 
	C575.606628,811.212280 591.518494,806.449585 607.399414,801.606934 
	C609.192383,801.060242 611.623169,799.008728 611.822632,797.413086 
	C613.177551,786.573853 614.024597,775.670715 615.011963,764.786072 
	C615.760437,756.535217 616.426697,748.276733 617.213806,740.029663 
	C618.440308,727.177673 619.777466,714.336121 620.992126,701.482971 
	C621.787170,693.070068 622.405579,684.640503 623.179749,676.225464 
	C624.423279,662.707581 625.757751,649.198059 627.000549,635.680115 
	C627.789429,627.099854 628.429382,618.505859 629.229858,609.926758 
	C630.444824,596.906616 631.790894,583.898682 632.985901,570.876770 
	C633.803650,561.965759 634.403442,553.034912 635.200073,544.121765 
	C636.423218,530.435852 637.771973,516.761108 638.989868,503.074707 
	C639.783081,494.160797 640.413208,485.232452 641.161560,476.314392 
	C642.435669,461.131683 643.745422,445.951965 645.081238,429.836304 
M234.305313,641.104004 
	C225.446106,639.037598 216.586899,636.971252 207.275833,634.799438 
	C206.967697,638.346924 206.419968,641.293457 206.504639,644.221680 
	C207.066879,663.666443 207.670517,683.111755 208.593475,702.541138 
	C208.668808,704.126770 210.969788,706.514648 212.664413,706.983521 
	C263.010620,720.913635 313.406067,734.666016 363.808838,748.390930 
	C370.277100,750.152283 376.828522,751.608398 384.083649,753.387939 
	C384.083649,750.330322 384.083466,748.368164 384.083710,746.406006 
	C384.091827,681.919495 384.092102,617.432922 384.110291,552.946411 
	C384.129150,486.127014 384.162811,419.307648 384.201721,352.488251 
	C384.203583,349.286865 384.789276,346.184906 379.713226,346.143433 
	C363.559814,346.011566 347.406586,345.611023 331.259827,345.104858 
	C327.634094,344.991211 326.787659,346.335358 326.756989,349.708618 
	C326.586151,368.526184 325.968048,387.341522 325.942657,406.158264 
	C325.828339,490.807007 325.867493,575.455933 325.832062,660.104797 
	C325.829407,666.422302 325.701294,666.574158 319.709412,664.909729 
	C291.497650,657.073547 263.308350,649.156311 234.305313,641.104004 
z"/>
<path fill="#151515" opacity="1.000000" stroke="none" 
	d="
M449.059113,61.040119 
	C449.057526,65.853035 449.057526,70.177345 449.057526,75.403770 
	C446.221222,74.297249 443.872711,73.364052 441.511932,72.462997 
	C431.716156,68.724152 421.971832,64.762032 411.205078,64.951012 
	C400.675812,65.135818 394.355865,70.955521 392.993378,82.255135 
	C399.713501,84.125961 406.587372,85.867966 413.349457,87.969597 
	C420.328796,90.138748 427.366364,92.262833 434.084076,95.102959 
	C449.715302,101.711563 455.944153,115.158852 451.528687,131.646240 
	C447.203949,147.794846 434.998779,154.700500 420.061829,157.945648 
	C405.900238,161.022385 391.891693,158.472382 377.986389,155.608353 
	C366.373810,153.216537 366.392548,153.164383 364.865814,141.232590 
	C364.218628,136.175003 363.528625,131.122910 362.770874,125.411293 
	C369.924835,128.388306 376.174774,131.621552 382.801178,133.583145 
	C390.706268,135.923294 398.878967,138.205063 407.035431,138.639130 
	C417.558044,139.199127 424.102661,132.242050 425.397369,120.949310 
	C417.198669,118.650269 408.765442,116.712700 400.642120,113.884949 
	C392.838226,111.168404 385.152130,107.933159 377.771912,104.215782 
	C360.243134,95.386597 363.756897,64.432465 376.355011,55.282902 
	C390.642700,44.906258 406.192291,42.804714 422.846558,45.326149 
	C431.538544,46.642101 440.094116,48.859158 449.060699,50.742611 
	C449.060699,54.312382 449.060699,57.431946 449.059113,61.040119 
z"/>
<path fill="#151515" opacity="1.000000" stroke="none" 
	d="
M704.361572,158.273590 
	C697.446350,158.310089 690.981934,158.310089 684.236084,158.310089 
	C684.236084,167.958313 684.236084,177.565872 684.236084,187.551453 
	C675.453674,187.551453 666.923401,187.551453 658.112061,187.551453 
	C658.112061,149.286285 658.112061,111.380951 658.112061,74.265297 
	C669.829956,74.536377 681.384766,75.014046 692.937744,74.972420 
	C697.894165,74.954559 702.957336,74.317078 707.778320,73.156715 
	C718.399048,70.600410 726.477844,74.955383 731.780518,83.195702 
	C735.698975,89.285042 738.265198,96.704475 739.618103,103.873955 
	C741.513611,113.918900 740.080688,124.119858 736.889893,133.940750 
	C731.648315,150.073441 722.757324,156.809082 704.361572,158.273590 
M701.959839,92.681328 
	C696.327454,92.681328 690.695068,92.681328 684.611816,92.681328 
	C684.611816,109.015221 684.611816,124.723801 684.611816,140.765274 
	C690.297913,139.835144 695.888611,139.120148 701.387756,137.967789 
	C707.517090,136.683380 711.799011,133.041992 711.821838,126.458443 
	C711.860535,115.249153 711.350769,104.037956 711.067078,92.651878 
	C707.457214,92.651878 705.154968,92.651878 701.959839,92.681328 
z"/>
<path fill="#161616" opacity="1.000000" stroke="none" 
	d="
M281.976074,111.939209 
	C292.988647,105.270226 305.159149,104.049896 317.108459,102.038979 
	C319.699799,101.602875 322.293396,101.180176 325.668396,100.621880 
	C321.250854,94.327751 315.461273,91.251076 308.712830,91.111725 
	C300.605835,90.944328 292.473511,91.924187 284.354767,92.448280 
	C281.724762,92.618050 279.103088,92.916969 275.520142,93.244278 
	C277.705292,86.816727 279.577942,81.066040 281.676575,75.399048 
	C281.988068,74.557915 283.303314,73.685555 284.258850,73.546379 
	C298.428894,71.482307 312.619965,69.275230 326.858215,72.998482 
	C329.100220,73.584740 331.348755,74.303482 333.436829,75.293129 
	C341.825653,79.268974 348.123230,84.668053 348.281006,95.089630 
	C348.597321,115.982307 349.275238,136.869507 349.817017,158.276779 
	C339.964172,156.966263 331.437103,155.722916 322.877716,154.769516 
	C320.707764,154.527817 318.267456,154.770935 316.239166,155.545181 
	C308.622589,158.452499 300.864410,159.871216 292.771362,158.502930 
	C282.678558,156.796555 274.574463,152.122284 272.362610,141.434479 
	C270.035339,130.188873 270.657135,119.373192 281.976074,111.939209 
M322.052185,128.590942 
	C322.361267,125.170029 322.670319,121.749107 323.035736,117.704391 
	C315.675751,118.882240 308.861450,119.922714 302.077209,121.131943 
	C301.358643,121.260025 300.359467,122.319214 300.265350,123.046669 
	C299.554169,128.544998 299.036774,134.068405 298.417633,139.977661 
	C306.281555,139.977661 313.491028,139.977661 320.943817,139.977661 
	C321.306427,136.378860 321.652893,132.940277 322.052185,128.590942 
z"/>
<path fill="#161616" opacity="1.000000" stroke="none" 
	d="
M125.737434,157.737747 
	C101.465591,165.282074 87.286285,143.475357 93.049026,124.072830 
	C95.163994,116.951973 99.450470,111.288200 106.715111,109.307045 
	C118.246147,106.162415 129.992844,103.808517 141.648758,101.121986 
	C143.092163,100.789299 144.538239,100.468132 146.813675,99.953911 
	C140.208389,93.056702 132.503754,90.750954 124.051086,90.998169 
	C115.765198,91.240524 107.499573,92.175903 98.639473,92.851791 
	C99.002846,86.577187 99.363091,80.356491 99.799362,72.823090 
	C114.403694,72.562302 128.663864,71.793686 142.875504,72.324532 
	C148.053452,72.517944 153.448196,75.209976 158.146393,77.832687 
	C163.963684,81.080093 168.104874,86.088799 168.493149,93.341354 
	C168.991150,102.642990 169.889816,111.931213 170.115799,121.237358 
	C170.401871,133.018143 170.184937,144.811127 170.184937,156.888596 
	C155.042191,156.940643 140.459991,151.784393 125.737434,157.737747 
M121.355240,122.118813 
	C120.776001,128.163834 120.196754,134.208862 119.664268,139.765930 
	C126.728310,139.765930 133.161987,139.850891 139.588623,139.676697 
	C140.582092,139.649780 142.314346,138.519150 142.398270,137.755356 
	C143.111206,131.266769 143.521439,124.744942 144.070221,117.611794 
	C136.002716,118.951637 128.844238,120.140526 121.355240,122.118813 
z"/>
<path fill="#151515" opacity="1.000000" stroke="none" 
	d="
M25.351986,65.590378 
	C24.989651,58.982944 24.989651,52.696884 24.989651,46.158344 
	C43.081402,46.158344 60.455875,46.158344 78.259117,46.158344 
	C77.191841,74.690880 81.462349,102.914589 76.606476,131.123047 
	C73.963020,146.479233 64.944603,154.951996 50.443142,157.155670 
	C38.381828,158.988541 26.031744,158.921127 13.489782,159.715698 
	C12.590204,151.889618 11.821719,145.204010 11.021106,138.238892 
	C18.861237,137.863724 26.325459,137.761993 33.738556,137.093399 
	C45.575108,136.025879 46.937138,134.489502 49.145195,123.056877 
	C52.219181,107.140747 50.815926,91.215790 49.542938,75.280106 
	C49.306503,72.320312 48.988579,69.367035 48.660950,65.911758 
	C40.912724,65.911758 33.313522,65.911758 25.351986,65.590378 
z"/>
<path fill="#151515" opacity="1.000000" stroke="none" 
	d="
M253.019547,73.082932 
	C257.828339,73.071655 262.145966,73.071655 267.709015,73.071655 
	C257.195190,102.265343 246.870224,130.934692 236.274658,160.355347 
	C227.396591,158.405991 219.169556,156.673416 210.996674,154.714996 
	C209.931717,154.459793 208.776627,153.211639 208.283813,152.138458 
	C196.459137,126.388474 188.435394,99.327347 180.270721,71.381340 
	C189.023132,73.074005 197.139679,74.512718 205.167389,76.341385 
	C206.334015,76.607124 207.421143,78.607437 207.959808,80.027153 
	C212.675842,92.456787 217.251907,104.939476 221.887878,117.399582 
	C222.677078,119.520683 223.553864,121.609207 224.906113,125.010506 
	C227.837006,115.784966 230.436493,107.790291 232.911102,99.757156 
	C235.112854,92.609741 237.393921,85.474350 239.213196,78.226524 
	C240.192627,74.324562 241.910767,72.540108 246.043716,73.128822 
	C248.160675,73.430382 250.364044,73.125191 253.019547,73.082932 
z"/>
<path fill="#161616" opacity="1.000000" stroke="none" 
	d="
M767.182007,154.756348 
	C758.455750,152.179764 758.402100,152.182114 758.015442,143.376587 
	C757.423462,129.897354 756.995422,116.410217 756.286865,102.937531 
	C756.172852,100.770348 755.363464,98.403297 754.185059,96.573250 
	C750.773071,91.274338 747.009216,86.202011 742.854797,80.288124 
	C754.815857,73.639786 759.719299,63.658035 756.087646,50.005257 
	C764.962524,50.005257 772.835999,50.005257 780.844360,50.005257 
	C781.203735,57.552162 781.557983,64.993065 781.934692,72.903412 
	C790.243530,72.903412 798.172058,72.903412 806.556152,72.903412 
	C806.556152,79.309601 806.556152,85.242348 806.556152,91.534393 
	C798.761902,91.534393 790.680237,91.534393 782.141907,91.534393 
	C781.919006,106.003227 779.050110,120.251740 784.013733,134.265488 
	C785.109131,137.358231 786.550598,139.121338 790.331543,139.236984 
	C796.609253,139.429001 802.861572,140.450653 809.065613,141.116516 
	C809.776001,152.022354 803.974304,159.301483 793.576965,158.887100 
	C784.868469,158.540039 776.236267,156.281204 767.182007,154.756348 
z"/>
<path fill="#161616" opacity="1.000000" stroke="none" 
	d="
M464.849182,139.085220 
	C449.850769,112.252090 461.457306,75.338005 501.776245,71.016258 
	C511.432587,69.981201 520.792542,71.543129 529.163818,76.699722 
	C530.934326,77.790329 532.429504,80.313957 532.849731,82.417419 
	C533.920166,87.775276 534.311035,93.268890 535.098816,99.733337 
	C530.126709,97.837914 525.875977,95.738380 521.381287,94.617821 
	C514.845459,92.988411 508.174988,91.651344 501.482697,90.982887 
	C496.892487,90.524399 493.331207,93.169586 490.984009,97.335579 
	C485.140228,107.707649 483.879364,118.427643 488.848572,129.395111 
	C493.082916,138.740555 501.847107,142.339615 511.634552,139.262192 
	C519.374390,136.828598 527.116150,134.401230 535.687744,131.710327 
	C534.081116,139.515656 532.701416,146.648392 531.056152,153.719315 
	C530.825806,154.709045 529.425049,155.684906 528.343079,156.179779 
	C507.429749,165.745285 478.858093,158.141220 464.849182,139.085220 
z"/>
<path fill="#161616" opacity="1.000000" stroke="none" 
	d="
M572.148560,143.107727 
	C572.144775,148.077240 572.144775,152.561935 572.144775,157.480255 
	C563.463257,157.480255 555.096924,157.480255 546.386353,157.480255 
	C546.386353,128.883087 546.386353,100.334045 546.386353,71.037079 
	C555.832825,73.552040 564.712830,76.073723 573.686462,78.200554 
	C576.093994,78.771172 578.948486,78.673065 581.317505,77.956039 
	C587.803772,75.992905 594.140869,73.536880 600.955688,71.128029 
	C601.486023,79.975990 601.991150,88.403633 602.526611,97.336121 
	C592.616577,97.869156 583.058105,98.383286 572.152344,98.969879 
	C572.152344,113.750618 572.152344,128.186752 572.148560,143.107727 
z"/>
<path fill="#161616" opacity="1.000000" stroke="none" 
	d="
M612.748779,129.744736 
	C612.746704,110.678421 612.746704,92.087708 612.746704,73.270386 
	C621.192810,73.270386 628.952087,73.270386 637.195068,73.270386 
	C637.195068,101.366257 637.195068,129.408737 637.195068,157.662903 
	C629.056091,157.662903 621.308716,157.662903 612.750793,157.662903 
	C612.750793,148.407593 612.750793,139.313965 612.748779,129.744736 
z"/>
<path fill="#373737" opacity="1.000000" stroke="none" 
	d="
M626.985962,41.062241 
	C631.294495,41.060947 635.106812,41.060947 639.413208,41.060947 
	C639.413208,48.084873 639.413208,54.854385 639.413208,61.924950 
	C630.066406,61.924950 620.491028,61.924950 610.716064,61.924950 
	C610.716064,55.069878 610.716064,48.352386 610.716064,41.063538 
	C616.234375,41.063538 621.362061,41.063538 626.985962,41.062241 
z"/>
<path fill="#FDD93F" opacity="1.000000" stroke="none" 
	d="
M645.060669,430.303650 
	C643.745422,445.951965 642.435669,461.131683 641.161560,476.314392 
	C640.413208,485.232452 639.783081,494.160797 638.989868,503.074707 
	C637.771973,516.761108 636.423218,530.435852 635.200073,544.121765 
	C634.403442,553.034912 633.803650,561.965759 632.985901,570.876770 
	C631.790894,583.898682 630.444824,596.906616 629.229858,609.926758 
	C628.429382,618.505859 627.789429,627.099854 627.000549,635.680115 
	C625.757751,649.198059 624.423279,662.707581 623.179749,676.225464 
	C622.405579,684.640503 621.787170,693.070068 620.992126,701.482971 
	C619.777466,714.336121 618.440308,727.177673 617.213806,740.029663 
	C616.426697,748.276733 615.760437,756.535217 615.011963,764.786072 
	C614.024597,775.670715 613.177551,786.573853 611.822632,797.413086 
	C611.623169,799.008728 609.192383,801.060242 607.399414,801.606934 
	C591.518494,806.449585 575.606628,811.212280 559.593384,815.595093 
	C519.094177,826.679688 478.545105,837.582642 437.998169,848.492004 
	C429.385315,850.809265 420.696533,852.844421 411.355865,855.181396 
	C411.212524,853.059082 411.021149,851.491272 411.012970,849.922546 
	C410.668274,783.804199 410.146667,717.686096 410.052979,651.567383 
	C409.896637,541.255127 409.974182,430.942352 410.063049,320.629883 
	C410.076294,304.168732 410.833862,287.708832 410.922333,271.246613 
	C410.945618,266.912781 413.154572,266.947632 416.251831,266.952759 
	C446.412720,267.002472 476.574371,267.100769 506.734528,266.942902 
	C538.193848,266.778259 569.651306,266.176880 601.110474,266.097473 
	C619.070618,266.052124 637.031677,266.735931 654.994080,266.925354 
	C658.461731,266.961884 659.138855,268.172058 658.772766,271.443512 
	C657.668274,281.312531 656.867065,291.216644 656.026367,301.113770 
	C654.680664,316.957275 653.354858,332.802734 652.102600,348.653839 
	C651.006226,362.531921 650.147278,376.429626 648.953308,390.298859 
	C647.817566,403.491364 646.383911,416.658173 645.060669,430.303650 
M552.463867,650.516235 
	C550.317200,651.355286 548.224915,652.392090 546.014709,653.000183 
	C534.793701,656.087524 523.554382,659.110352 512.298584,662.068909 
	C488.342255,668.365784 464.407410,674.751770 440.373230,680.737976 
	C436.209259,681.775085 434.999329,683.488037 435.015015,687.471008 
	C435.094391,707.635437 434.966644,727.800537 434.942932,747.965454 
	C434.941071,749.524475 435.181885,751.083679 435.362610,753.284485 
	C449.262634,749.842712 462.502716,746.707581 475.666046,743.277954 
	C514.118408,733.259399 552.543884,723.137329 590.970398,713.019897 
	C597.858459,711.206299 599.465576,708.937439 599.998474,701.770203 
	C600.997131,688.338440 602.154236,674.918457 603.224854,661.491943 
	C605.485352,633.144104 607.720459,604.794189 609.990112,576.447083 
	C611.250916,560.700806 612.567627,544.959045 613.843384,529.213928 
	C614.265991,523.998230 614.639404,518.778564 615.076599,513.017090 
	C612.393005,513.238586 610.599548,513.339478 608.817566,513.541138 
	C592.961243,515.334900 577.114502,517.215271 561.250366,518.935791 
	C540.591370,521.176208 519.913452,523.242493 499.256104,525.497437 
	C493.517365,526.123779 493.126740,526.019104 493.125824,520.405273 
	C493.120544,488.407898 493.237030,456.410004 493.067749,424.413605 
	C493.040863,419.329681 494.717621,417.916077 499.711090,417.940948 
	C538.373840,418.133514 577.037903,418.062836 615.701538,418.068817 
	C622.348572,418.069824 622.350708,417.832367 622.971619,411.046936 
	C624.759521,391.509766 626.666199,371.982666 628.675171,352.466949 
	C629.311890,346.281860 629.255188,345.974213 622.962402,345.976135 
	C569.966614,345.992279 516.970825,346.008575 463.975006,346.046173 
	C456.309296,346.051605 448.643707,346.197266 440.977905,346.226501 
	C436.693268,346.242767 434.681641,347.503021 434.692719,352.595947 
	C434.876007,436.755646 434.820923,520.915833 434.832794,605.075928 
	C434.833069,606.854797 434.994751,608.633667 435.116028,611.130432 
	C475.198425,604.026611 514.708008,597.024292 555.234497,589.841736 
	C554.409546,610.268799 553.612610,630.001587 552.463867,650.516235 
z"/>
<path fill="#EAEAE8" opacity="1.000000" stroke="none" 
	d="
M234.708176,641.186035 
	C263.308350,649.156311 291.497650,657.073547 319.709412,664.909729 
	C325.701294,666.574158 325.829407,666.422302 325.832062,660.104797 
	C325.867493,575.455933 325.828339,490.807007 325.942657,406.158264 
	C325.968048,387.341522 326.586151,368.526184 326.756989,349.708618 
	C326.787659,346.335358 327.634094,344.991211 331.259827,345.104858 
	C347.406586,345.611023 363.559814,346.011566 379.713226,346.143433 
	C384.789276,346.184906 384.203583,349.286865 384.201721,352.488251 
	C384.162811,419.307648 384.129150,486.127014 384.110291,552.946411 
	C384.092102,617.432922 384.091827,681.919495 384.083710,746.406006 
	C384.083466,748.368164 384.083649,750.330322 384.083649,753.387939 
	C376.828522,751.608398 370.277100,750.152283 363.808838,748.390930 
	C313.406067,734.666016 263.010620,720.913635 212.664413,706.983521 
	C210.969788,706.514648 208.668808,704.126770 208.593475,702.541138 
	C207.670517,683.111755 207.066879,663.666443 206.504639,644.221680 
	C206.419968,641.293457 206.967697,638.346924 207.275833,634.799438 
	C216.586899,636.971252 225.446106,639.037598 234.708176,641.186035 
z"/>
<path fill="#F1F1F1" opacity="1.000000" stroke="none" 
	d="
M702.406250,92.666603 
	C705.154968,92.651878 707.457214,92.651878 711.067078,92.651878 
	C711.350769,104.037956 711.860535,115.249153 711.821838,126.458443 
	C711.799011,133.041992 707.517090,136.683380 701.387756,137.967789 
	C695.888611,139.120148 690.297913,139.835144 684.611816,140.765274 
	C684.611816,124.723801 684.611816,109.015221 684.611816,92.681328 
	C690.695068,92.681328 696.327454,92.681328 702.406250,92.666603 
z"/>
<path fill="#F0F0F0" opacity="1.000000" stroke="none" 
	d="
M322.025757,129.046310 
	C321.652893,132.940277 321.306427,136.378860 320.943817,139.977661 
	C313.491028,139.977661 306.281555,139.977661 298.417633,139.977661 
	C299.036774,134.068405 299.554169,128.544998 300.265350,123.046669 
	C300.359467,122.319214 301.358643,121.260025 302.077209,121.131943 
	C308.861450,119.922714 315.675751,118.882240 323.035736,117.704391 
	C322.670319,121.749107 322.361267,125.170029 322.025757,129.046310 
z"/>
<path fill="#EEEEEE" opacity="1.000000" stroke="none" 
	d="
M121.520493,121.724106 
	C128.844238,120.140526 136.002716,118.951637 144.070221,117.611794 
	C143.521439,124.744942 143.111206,131.266769 142.398270,137.755356 
	C142.314346,138.519150 140.582092,139.649780 139.588623,139.676697 
	C133.161987,139.850891 126.728310,139.765930 119.664268,139.765930 
	C120.196754,134.208862 120.776001,128.163834 121.520493,121.724106 
z"/>
<path fill="#F6F6F4" opacity="1.000000" stroke="none" 
	d="
M552.639771,650.125244 
	C553.612610,630.001587 554.409546,610.268799 555.234497,589.841736 
	C514.708008,597.024292 475.198425,604.026611 435.116028,611.130432 
	C434.994751,608.633667 434.833069,606.854797 434.832794,605.075928 
	C434.820923,520.915833 434.876007,436.755646 434.692719,352.595947 
	C434.681641,347.503021 436.693268,346.242767 440.977905,346.226501 
	C448.643707,346.197266 456.309296,346.051605 463.975006,346.046173 
	C516.970825,346.008575 569.966614,345.992279 622.962402,345.976135 
	C629.255188,345.974213 629.311890,346.281860 628.675171,352.466949 
	C626.666199,371.982666 624.759521,391.509766 622.971619,411.046936 
	C622.350708,417.832367 622.348572,418.069824 615.701538,418.068817 
	C577.037903,418.062836 538.373840,418.133514 499.711090,417.940948 
	C494.717621,417.916077 493.040863,419.329681 493.067749,424.413605 
	C493.237030,456.410004 493.120544,488.407898 493.125824,520.405273 
	C493.126740,526.019104 493.517365,526.123779 499.256104,525.497437 
	C519.913452,523.242493 540.591370,521.176208 561.250366,518.935791 
	C577.114502,517.215271 592.961243,515.334900 608.817566,513.541138 
	C610.599548,513.339478 612.393005,513.238586 615.076599,513.017090 
	C614.639404,518.778564 614.265991,523.998230 613.843384,529.213928 
	C612.567627,544.959045 611.250916,560.700806 609.990112,576.447083 
	C607.720459,604.794189 605.485352,633.144104 603.224854,661.491943 
	C602.154236,674.918457 600.997131,688.338440 599.998474,701.770203 
	C599.465576,708.937439 597.858459,711.206299 590.970398,713.019897 
	C552.543884,723.137329 514.118408,733.259399 475.666046,743.277954 
	C462.502716,746.707581 449.262634,749.842712 435.362610,753.284485 
	C435.181885,751.083679 434.941071,749.524475 434.942932,747.965454 
	C434.966644,727.800537 435.094391,707.635437 435.015015,687.471008 
	C434.999329,683.488037 436.209259,681.775085 440.373230,680.737976 
	C464.407410,674.751770 488.342255,668.365784 512.298584,662.068909 
	C523.554382,659.110352 534.793701,656.087524 546.014709,653.000183 
	C548.224915,652.392090 550.317200,651.355286 552.639771,650.125244 
z"/>
</svg>